{"title":"The.Longest.Ride.2015.1080p.WEB-DL.DD5.1.H264-TEC","uid":12066793,"size":4769939995,"categoryP":"video","categoryS":"hd___movies","magnet":"?xt=urn:btih:cdef3e948bdb7ce336be3c0dfcb2c9e9074fddd2&amp;dn=The.Longest.Ride.2015.1080p.WEB-DL.DD5.1.H264-TEC&amp;tr=udp%3A%2F%2Ftracker.openbittorrent.com%3A80&amp;tr=udp%3A%2F%2Fopen.demonii.com%3A1337&amp;tr=udp%3A%2F%2Ftracker.coppersurfer.tk%3A6969&amp;tr=udp%3A%2F%2Fexodus.desync.com%3A6969","seeders":0,"leechers":1,"uploader":"vickey1992","files":5,"time":1435405020,"description":"Video\nID                                       : 1\nFormat                                   : AVC\nFormat/Info                              : Advanced Video Codec\nFormat profile                           : High@L4\nFormat settings, CABAC                   : Yes\nFormat settings, ReFrames                : 5 frames\nCodec ID                                 : V_MPEG4/ISO/AVC\nDuration                                 : 2h 8mn\nBit rate                                 : 4 454 Kbps\nWidth                                    : 1 912 pixels\nHeight                                   : 796 pixels\nDisplay aspect ratio                     : 2.40:1\nFrame rate mode                          : Constant\nFrame rate                               : 23.976 fps\nColor space                              : YUV\nChroma subsampling                       : 4:2:0\nBit depth                                : 8 bits\nScan type                                : Progressive\nBits/(Pixel*Frame)                       : 0.122\nStream size                              : 4.01 GiB (90%)\nTitle                                    : The.Longest.Ride.2015.1080p.WEB-DL.DD5.1.H264-TEC\nLanguage                                 : English\nDefault                                  : Yes\nForced                                   : No\nColor range                              : Limited\nColor primaries                          : BT.709\nTransfer characteristics                 : BT.709\nMatrix coefficients                      : BT.709\n\nAudio\nID                                       : 2\nFormat                                   : AC-3\nFormat/Info                              : Audio Coding 3\nMode extension                           : CM (complete main)\nFormat settings, Endianness              : Big\nCodec ID                                 : A_AC3\nDuration                                 : 2h 8mn\nBit rate mode                            : Constant\nBit rate                                 : 384 Kbps\nChannel(s)                               : 6 channels\nChannel positions                        : Front: L C R, Side: L R, LFE\nSampling rate                            : 48.0 KHz\nBit depth                                : 16 bits\nCompression mode                         : Lossy\nStream size                              : 354 MiB (8%)\nTitle                                    : The.Longest.Ride.2015.1080p.WEB-DL.DD5.1.H264-TEC\nLanguage                                 : English\nDefault                                  : Yes\nForced                                   : No\n\nText\nID                                       : 3\nFormat                                   : UTF-8\nCodec ID                                 : S_TEXT/UTF8\nCodec ID/Info                            : UTF-8 Plain Text\nLanguage                                 : English\nDefault                                  : Yes\nForced                                   : No\n\nMenu\n00:00:00.000                             : en:Chapter 01\n00:02:13.000                             : en:Chapter 02\n00:07:15.000                             : en:Chapter 03\n00:10:35.000                             : en:Chapter 04\n00:12:43.000                             : en:Chapter 05\n00:15:40.000                             : en:Chapter 06\n00:20:08.000                             : en:Chapter 07\n00:22:59.000                             : en:Chapter 08\n00:26:02.000                             : en:Chapter 09\n00:29:08.000                             : en:Chapter 10\n00:32:59.000                             : en:Chapter 11\n00:37:14.000                             : en:Chapter 12\n00:44:06.000                             : en:Chapter 13\n00:48:56.000                             : en:Chapter 14\n00:53:20.000                             : en:Chapter 15\n00:57:29.000                             : en:Chapter 16\n01:01:37.000                             : en:Chapter 17\n01:04:57.000                             : en:Chapter 18\n01:09:32.000                             : en:Chapter 19\n01:11:55.000                             : en:Chapter 20\n01:16:11.000                             : en:Chapter 21\n01:20:50.000                             : en:Chapter 22\n01:24:56.000                             : en:Chapter 23\n01:29:09.000                             : en:Chapter 24\n01:32:43.000                             : en:Chapter 25\n01:37:09.000                             : en:Chapter 26\n01:39:50.000                             : en:Chapter 27\n01:42:01.000                             : en:Chapter 28\n01:45:14.000                             : en:Chapter 29\n01:52:00.000                             : en:Chapter 30\n01:57:33.000                             : en:Chapter 31\n02:01:53.000                             : en:Chapter 32","torrent":{"xt":"urn:btih:cdef3e948bdb7ce336be3c0dfcb2c9e9074fddd2","amp;dn":"The.Longest.Ride.2015.1080p.WEB-DL.DD5.1.H264-TEC","amp;tr":["udp%3A%2F%2Ftracker.openbittorrent.com%3A80","udp%3A%2F%2Fopen.demonii.com%3A1337","udp%3A%2F%2Ftracker.coppersurfer.tk%3A6969","udp%3A%2F%2Fexodus.desync.com%3A6969"],"infoHash":"cdef3e948bdb7ce336be3c0dfcb2c9e9074fddd2","infoHashBuffer":{"type":"Buffer","data":[205,239,62,148,139,219,124,227,54,190,60,13,252,178,201,233,7,79,221,210]},"announce":[],"urlList":[]}}